<svg version="1.0" xmlns="http://www.w3.org/2000/svg"
 width="512.000000pt" height="512.000000pt" viewBox="0 0 512.000000 512.000000"
 preserveAspectRatio="xMidYMid meet">

<g transform="translate(0.000000,512.000000) scale(0.100000,-0.100000)"
fill="#000000" stroke="none">
<path d="M1385 4350 c-382 -60 -697 -287 -870 -626 -155 -304 -179 -682 -64
-1011 192 -548 779 -1170 1669 -1769 238 -160 285 -179 440 -179 146 0 203 22
392 147 912 604 1521 1243 1717 1801 92 263 96 563 10 832 -160 505 -639 840
-1159 812 -224 -12 -410 -75 -605 -205 -96 -63 -253 -208 -323 -297 l-32 -40
-32 40 c-65 83 -229 235 -317 293 -143 96 -278 154 -435 188 -86 19 -308 26
-391 14z m308 -255 c173 -30 349 -115 488 -236 71 -61 170 -178 232 -274 58
-90 86 -116 134 -121 57 -7 91 20 174 143 173 253 392 414 657 480 102 26 313
23 418 -5 334 -89 583 -348 671 -698 13 -53 17 -111 17 -249 0 -168 -2 -186
-28 -270 -89 -290 -269 -564 -586 -889 -270 -276 -619 -562 -1010 -826 -281
-189 -321 -189 -615 11 -391 265 -724 537 -995 815 -344 352 -527 641 -601
949 -26 108 -26 306 0 430 39 189 117 340 244 472 214 223 503 320 800 268z"/>
</g>
</svg>
